# xmcd
#
# Track frame offsets: 
#        150
#        13125
#        24015
#        33302
#        50588
#        66125
#        82732
#        98986
#        116435
#        136515
#        149774
#
# Disc length: 2155 seconds
#
# Revision: 0
# Processed by: cddbd v1.5.2PL0 Copyright (c) Steve Scherf et al.
# Submitted via: ExactAudioCopy v1.0b4
#
DISCID=8608690b
DTITLE=Crooked Saws - This Machine Sells Cars
DYEAR=2015
DGENRE=Blues Rock
TTITLE0=Three Minute Long Song
TTITLE1=Slave Boy
TTITLE2=Yeow
TTITLE3=Shine On
TTITLE4=The Ride
TTITLE5=Veteran Resignation
TTITLE6=Bad Luck
TTITLE7=Hard Love
TTITLE8=Sad Days, Lonely Nights
TTITLE9=Gone Baby Gone
TTITLE10=Something More
EXTD=
EXTT0=
EXTT1=
EXTT2=
EXTT3=
EXTT4=
EXTT5=
EXTT6=
EXTT7=
EXTT8=
EXTT9=
EXTT10=
PLAYORDER=
